<?xml version="1.0" encoding="utf-8"?>
<!-- Generator: Adobe Illustrator 22.0.1, SVG Export Plug-In . SVG Version: 6.00 Build 0)  -->
<svg version="1.1" id="Layer_1" xmlns="http://www.w3.org/2000/svg" xmlns:xlink="http://www.w3.org/1999/xlink" x="0px" y="0px"
	 viewBox="0 0 1843 345.4" style="enable-background:new 0 0 1843 345.4;" xml:space="preserve">
<style type="text/css">
	.st0{fill:url(#SVGID_1_);}
	.st1{fill:url(#SVGID_2_);}
	.st2{fill:url(#SVGID_3_);}
	.st3{fill:url(#SVGID_4_);}
	.st4{fill:url(#SVGID_5_);}
	.st5{fill:url(#SVGID_6_);}
	.st6{fill:url(#SVGID_7_);}
	.st7{fill:url(#SVGID_8_);}
	.st8{fill:url(#SVGID_9_);}
	.st9{fill:url(#SVGID_10_);}
	.st10{fill:url(#SVGID_11_);}
	.st11{fill:url(#SVGID_12_);}
</style>
<title>Forsage logo-021</title>
<linearGradient id="SVGID_1_" gradientUnits="userSpaceOnUse" x1="-25.71" y1="151.725" x2="1843.05" y2="151.725" gradientTransform="matrix(1 0 0 -1 0 348)">
	<stop  offset="0" style="stop-color:#FFBE47"/>
	<stop  offset="0.43" style="stop-color:#FF4EAA;stop-opacity:0.8"/>
	<stop  offset="0.52" style="stop-color:#F04AA6;stop-opacity:0.82"/>
	<stop  offset="0.67" style="stop-color:#C93F9C;stop-opacity:0.86"/>
	<stop  offset="0.86" style="stop-color:#8A2D8D;stop-opacity:0.94"/>
	<stop  offset="1" style="stop-color:#581F80"/>
</linearGradient>
<polygon class="st0" points="41.1,179.8 8.4,250.3 49.8,250.2 82.5,179.8 258.3,179.8 275.7,142.2 58.5,142.2 "/>
<linearGradient id="SVGID_2_" gradientUnits="userSpaceOnUse" x1="-25.71" y1="254.61" x2="1843.05" y2="254.61" gradientTransform="matrix(1 0 0 -1 0 348)">
	<stop  offset="0" style="stop-color:#FFBE47"/>
	<stop  offset="0.43" style="stop-color:#FF4EAA;stop-opacity:0.8"/>
	<stop  offset="0.52" style="stop-color:#F04AA6;stop-opacity:0.82"/>
	<stop  offset="0.67" style="stop-color:#C93F9C;stop-opacity:0.86"/>
	<stop  offset="0.86" style="stop-color:#8A2D8D;stop-opacity:0.94"/>
	<stop  offset="1" style="stop-color:#581F80"/>
</linearGradient>
<polygon class="st1" points="307,74.6 131.2,74.6 89.9,74.6 72.4,112.2 289.6,112.2 "/>
<linearGradient id="SVGID_3_" gradientUnits="userSpaceOnUse" x1="-25.71" y1="151.725" x2="1843.05" y2="151.725" gradientTransform="matrix(1 0 0 -1 0 348)">
	<stop  offset="0" style="stop-color:#FFBE47"/>
	<stop  offset="0.43" style="stop-color:#FF4EAA;stop-opacity:0.8"/>
	<stop  offset="0.52" style="stop-color:#F04AA6;stop-opacity:0.82"/>
	<stop  offset="0.67" style="stop-color:#C93F9C;stop-opacity:0.86"/>
	<stop  offset="0.86" style="stop-color:#8A2D8D;stop-opacity:0.94"/>
	<stop  offset="1" style="stop-color:#581F80"/>
</linearGradient>
<polygon class="st2" points="1572.1,179.8 1557.1,212.2 1556.8,212.2 1539.4,249.7 1539.7,249.7 1539.4,250.3 1580.8,250.2 
	1581.1,249.7 1756.6,249.7 1773.9,212.2 1598.4,212.2 1613.5,179.8 1789.3,179.8 1806.7,142.2 1589.5,142.2 "/>
<linearGradient id="SVGID_4_" gradientUnits="userSpaceOnUse" x1="-25.71" y1="254.61" x2="1843.05" y2="254.61" gradientTransform="matrix(1 0 0 -1 0 348)">
	<stop  offset="0" style="stop-color:#FFBE47"/>
	<stop  offset="0.43" style="stop-color:#FF4EAA;stop-opacity:0.8"/>
	<stop  offset="0.52" style="stop-color:#F04AA6;stop-opacity:0.82"/>
	<stop  offset="0.67" style="stop-color:#C93F9C;stop-opacity:0.86"/>
	<stop  offset="0.86" style="stop-color:#8A2D8D;stop-opacity:0.94"/>
	<stop  offset="1" style="stop-color:#581F80"/>
</linearGradient>
<polygon class="st3" points="1662.2,74.6 1620.8,74.6 1603.4,112.2 1820.6,112.2 1838,74.6 "/>
<linearGradient id="SVGID_5_" gradientUnits="userSpaceOnUse" x1="-25.71" y1="185.85" x2="1843.05" y2="185.85" gradientTransform="matrix(1 0 0 -1 0 348)">
	<stop  offset="0" style="stop-color:#FFBE47"/>
	<stop  offset="0.43" style="stop-color:#FF4EAA;stop-opacity:0.8"/>
	<stop  offset="0.52" style="stop-color:#F04AA6;stop-opacity:0.82"/>
	<stop  offset="0.67" style="stop-color:#C93F9C;stop-opacity:0.86"/>
	<stop  offset="0.86" style="stop-color:#8A2D8D;stop-opacity:0.94"/>
	<stop  offset="1" style="stop-color:#581F80"/>
</linearGradient>
<path class="st4" d="M545.5,112.2c6.2-13.2,0.4-29-12.8-35.1c-3.5-1.6-7.3-2.5-11.2-2.5H387.2c-25.2,0-48.2,14.7-58.8,37.6
	l-32.7,70.6h0.1l-13.6,29.4l0,0c-6.1,13.3-0.3,29,13,35.1c3.5,1.6,7.2,2.4,11,2.4h134.4c25.2,0,48.2-14.7,58.8-37.6L545.5,112.2
	L545.5,112.2z M504,112.2l-46.2,100H323.5l32.7-70.5l13.6-29.4h154.9L504,112.2z"/>
<linearGradient id="SVGID_6_" gradientUnits="userSpaceOnUse" x1="-25.71" y1="95.59" x2="1843.05" y2="95.59" gradientTransform="matrix(1 0 0 -1 0 348)">
	<stop  offset="0" style="stop-color:#FFBE47"/>
	<stop  offset="0.43" style="stop-color:#FF4EAA;stop-opacity:0.8"/>
	<stop  offset="0.52" style="stop-color:#F04AA6;stop-opacity:0.82"/>
	<stop  offset="0.67" style="stop-color:#C93F9C;stop-opacity:0.86"/>
	<stop  offset="0.86" style="stop-color:#8A2D8D;stop-opacity:0.94"/>
	<stop  offset="1" style="stop-color:#581F80"/>
</linearGradient>
<path class="st5" d="M1029.1,252.1l-0.3,0.6L1029.1,252.1z"/>
<linearGradient id="SVGID_7_" gradientUnits="userSpaceOnUse" x1="-25.71" y1="96.475" x2="1843.05" y2="96.475" gradientTransform="matrix(1 0 0 -1 0 348)">
	<stop  offset="0" style="stop-color:#FFBE47"/>
	<stop  offset="0.43" style="stop-color:#FF4EAA;stop-opacity:0.8"/>
	<stop  offset="0.52" style="stop-color:#F04AA6;stop-opacity:0.82"/>
	<stop  offset="0.67" style="stop-color:#C93F9C;stop-opacity:0.86"/>
	<stop  offset="0.86" style="stop-color:#8A2D8D;stop-opacity:0.94"/>
	<stop  offset="1" style="stop-color:#581F80"/>
</linearGradient>
<path class="st6" d="M1029.6,250.9l-0.6,1.2C1029.2,251.9,1029.3,251.4,1029.6,250.9z"/>
<linearGradient id="SVGID_8_" gradientUnits="userSpaceOnUse" x1="-25.71" y1="97.675" x2="1843.05" y2="97.675" gradientTransform="matrix(1 0 0 -1 0 348)">
	<stop  offset="0" style="stop-color:#FFBE47"/>
	<stop  offset="0.43" style="stop-color:#FF4EAA;stop-opacity:0.8"/>
	<stop  offset="0.52" style="stop-color:#F04AA6;stop-opacity:0.82"/>
	<stop  offset="0.67" style="stop-color:#C93F9C;stop-opacity:0.86"/>
	<stop  offset="0.86" style="stop-color:#8A2D8D;stop-opacity:0.94"/>
	<stop  offset="1" style="stop-color:#581F80"/>
</linearGradient>
<path class="st7" d="M1030.2,249.7c-0.2,0.5-0.4,0.8-0.6,1.2L1030.2,249.7z"/>
<linearGradient id="SVGID_9_" gradientUnits="userSpaceOnUse" x1="-25.71" y1="185.83" x2="1843.05" y2="185.83" gradientTransform="matrix(1 0 0 -1 0 348)">
	<stop  offset="0" style="stop-color:#FFBE47"/>
	<stop  offset="0.43" style="stop-color:#FF4EAA;stop-opacity:0.8"/>
	<stop  offset="0.52" style="stop-color:#F04AA6;stop-opacity:0.82"/>
	<stop  offset="0.67" style="stop-color:#C93F9C;stop-opacity:0.86"/>
	<stop  offset="0.86" style="stop-color:#8A2D8D;stop-opacity:0.94"/>
	<stop  offset="1" style="stop-color:#581F80"/>
</linearGradient>
<path class="st8" d="M1287.1,74.6h-134.4c-25.2,0-48.2,14.7-58.8,37.6h175.7l-14.4,31.2h-175.7l-18.2,39.4h0.1l-13.7,29.4l0,0
	l-1.7,3.8c-0.9,2-1.8,3.8-2.6,5.6l-3.2,6.8l-0.2,0.4c-0.5,1.2-1.1,2.3-1.6,3.3l-0.9,2c-1.4,3-2.6,5.6-3.6,7.7l-1.4,3.1l-0.4,0.8
	l-0.7,1.6c-0.4,0.9-0.8,1.6-1,2.2l-0.1,0.1h41.4l17.4-37.6l14.5-31.2H1238l-31.8,68.8h40.8l64.1-137.6h0.1c6.1-13.3,0.3-29-13-35.1
	C1294.7,75.5,1290.9,74.6,1287.1,74.6L1287.1,74.6z"/>
<linearGradient id="SVGID_10_" gradientUnits="userSpaceOnUse" x1="-25.71" y1="185.825" x2="1843.05" y2="185.825" gradientTransform="matrix(1 0 0 -1 0 348)">
	<stop  offset="0" style="stop-color:#FFBE47"/>
	<stop  offset="0.43" style="stop-color:#FF4EAA;stop-opacity:0.8"/>
	<stop  offset="0.52" style="stop-color:#F04AA6;stop-opacity:0.82"/>
	<stop  offset="0.67" style="stop-color:#C93F9C;stop-opacity:0.86"/>
	<stop  offset="0.86" style="stop-color:#8A2D8D;stop-opacity:0.94"/>
	<stop  offset="1" style="stop-color:#581F80"/>
</linearGradient>
<path class="st9" d="M1411.4,142.2l-17.4,37.6h99.2l-8.2,17.8c-4.1,8.9-13,14.6-22.8,14.6h-104.7c-4.8,0-8.6-3.9-8.6-8.6
	c0-1.3,0.3-2.5,0.8-3.6l33.9-73.1c4.1-8.9,13-14.6,22.9-14.6h20.8l138.9-0.3c7.9-17.5,0,0,17.6-37.3h-176.1
	c-25.2,0-48.2,14.7-58.8,37.6l-32.7,70.5h0.1l-13.7,29.4l0,0c-6.1,13.3-0.3,29,13,35.1c3.5,1.6,7.2,2.4,11,2.4h134.3
	c25.2,0,48.2-14.7,58.8-37.6l32.3-70L1411.4,142.2z"/>
<linearGradient id="SVGID_11_" gradientUnits="userSpaceOnUse" x1="-25.71" y1="185.87" x2="1843.05" y2="185.87" gradientTransform="matrix(1 0 0 -1 0 348)">
	<stop  offset="0" style="stop-color:#FFBE47"/>
	<stop  offset="0.43" style="stop-color:#FF4EAA;stop-opacity:0.8"/>
	<stop  offset="0.52" style="stop-color:#F04AA6;stop-opacity:0.82"/>
	<stop  offset="0.67" style="stop-color:#C93F9C;stop-opacity:0.86"/>
	<stop  offset="0.86" style="stop-color:#8A2D8D;stop-opacity:0.94"/>
	<stop  offset="1" style="stop-color:#581F80"/>
</linearGradient>
<path class="st10" d="M1006.6,143.4H865.1l14.5-31.2h175.7c17.7-37.6-0.1,0,17.7-37.6H897c-25.2,0-48.2,14.7-58.8,37.6l-15.6,33.6
	h0.4l-2.1,4.6c-5,10.8-0.3,23.5,10.4,28.5c2.8,1.3,5.9,2,9,2h141.7l-14.4,31.2H791.9c-8.1,17.5,0,0-18.1,37.5h176.4
	c25.2,0,48.2-14.7,58.8-37.6l14.4-31.2h0.4l2.8-6c5.1-11.2,0.2-24.4-11-29.5c-2.9-1.3-6-2-9.1-2L1006.6,143.4z"/>
<linearGradient id="SVGID_12_" gradientUnits="userSpaceOnUse" x1="-25.71" y1="185.5" x2="1843.05" y2="185.5" gradientTransform="matrix(1 0 0 -1 0 348)">
	<stop  offset="0" style="stop-color:#FFBE47"/>
	<stop  offset="0.43" style="stop-color:#FF4EAA;stop-opacity:0.8"/>
	<stop  offset="0.52" style="stop-color:#F04AA6;stop-opacity:0.82"/>
	<stop  offset="0.67" style="stop-color:#C93F9C;stop-opacity:0.86"/>
	<stop  offset="0.86" style="stop-color:#8A2D8D;stop-opacity:0.94"/>
	<stop  offset="1" style="stop-color:#581F80"/>
</linearGradient>
<path class="st11" d="M776.5,74.6H600.2l-17.2,37.6H759l-14.4,31.2H568.7l-18.1,39.4l0,0l-31,67h41.4l31.9-68.8h78.3l25.3,69.4h41
	L712.6,181h19c22.5,0,42.9-13.2,52.1-33.7l1.7-3.8l14.9-31.2h0.1c6.1-13.3,0.4-29-12.9-35.1C784.1,75.5,780.3,74.7,776.5,74.6
	L776.5,74.6z"/>
</svg>
