<?xml version="1.0" encoding="utf-8"?>
<!-- Generator: Adobe Illustrator 18.0.0, SVG Export Plug-In . SVG Version: 6.00 Build 0)  -->
<!DOCTYPE svg PUBLIC "-//W3C//DTD SVG 1.1//EN" "http://www.w3.org/Graphics/SVG/1.1/DTD/svg11.dtd">
<svg version="1.1" id="Layer_1" xmlns="http://www.w3.org/2000/svg" xmlns:xlink="http://www.w3.org/1999/xlink" x="0px" y="0px"
	 viewBox="0 0 25.9 22.8" enable-background="new 0 0 25.9 22.8" xml:space="preserve">
<g>
	<path fill="#FCD321" d="M25.6,20.5L14.2,0.7C13.9,0.3,13.5,0,13,0s-1,0.3-1.2,0.7l-11.5,20c-0.3,0.4-0.3,1,0,1.4
		c0.3,0.4,0.7,0.7,1.2,0.7h23.1c0,0,0,0,0,0c0.8,0,1.4-0.6,1.4-1.4C25.9,21.1,25.8,20.7,25.6,20.5z"/>
</g>
<path fill="#4D4D4D" d="M11.8,19.9c-0.3-0.3-0.5-0.7-0.5-1.1s0.2-0.8,0.5-1.1c0.3-0.3,0.7-0.5,1.2-0.5c0.5,0,0.9,0.2,1.2,0.5
	c0.3,0.3,0.5,0.7,0.5,1.1s-0.2,0.8-0.5,1.1s-0.7,0.5-1.2,0.5C12.5,20.3,12.1,20.2,11.8,19.9z M11.4,5.7h3.1L14,15.4h-2.1L11.4,5.7z"
	/>
</svg>
