<?xml version="1.0" encoding="UTF-8"?>
<svg xmlns="http://www.w3.org/2000/svg" xmlns:xlink="http://www.w3.org/1999/xlink" width="300pt" height="300pt" viewBox="0 0 300 300" version="1.1">
<defs>
<clipPath id="clip1">
  <path d="M 150 0 C 67.15625 0 0 67.15625 0 150 C 0 232.84375 67.15625 300 150 300 C 232.84375 300 300 232.84375 300 150 C 300 67.15625 232.84375 0 150 0 Z M 150 0 "/>
</clipPath>
<clipPath id="clip2">
  <path d="M 0 100 L 300 100 L 300 200 L 0 200 Z M 0 100 "/>
</clipPath>
<clipPath id="clip3">
  <path d="M 150 0 C 67.15625 0 0 67.15625 0 150 C 0 232.84375 67.15625 300 150 300 C 232.84375 300 300 232.84375 300 150 C 300 67.15625 232.84375 0 150 0 Z M 150 0 "/>
</clipPath>
<clipPath id="clip4">
  <path d="M 0 200 L 300 200 L 300 300 L 0 300 Z M 0 200 "/>
</clipPath>
<clipPath id="clip5">
  <path d="M 150 0 C 67.15625 0 0 67.15625 0 150 C 0 232.84375 67.15625 300 150 300 C 232.84375 300 300 232.84375 300 150 C 300 67.15625 232.84375 0 150 0 Z M 150 0 "/>
</clipPath>
<clipPath id="clip6">
  <path d="M 110 110 L 190 110 L 190 190 L 110 190 Z M 110 110 "/>
</clipPath>
<clipPath id="clip7">
  <path d="M 150 0 C 67.15625 0 0 67.15625 0 150 C 0 232.84375 67.15625 300 150 300 C 232.84375 300 300 232.84375 300 150 C 300 67.15625 232.84375 0 150 0 Z M 150 0 "/>
</clipPath>
<clipPath id="clip8">
  <path d="M 115 115 L 185 115 L 185 185 L 115 185 Z M 115 115 "/>
</clipPath>
<clipPath id="clip9">
  <path d="M 150 0 C 67.15625 0 0 67.15625 0 150 C 0 232.84375 67.15625 300 150 300 C 232.84375 300 300 232.84375 300 150 C 300 67.15625 232.84375 0 150 0 Z M 150 0 "/>
</clipPath>
<clipPath id="clip10">
  <path d="M 143 143 L 157 143 L 157 157 L 143 157 Z M 143 143 "/>
</clipPath>
<clipPath id="clip11">
  <path d="M 150 0 C 67.15625 0 0 67.15625 0 150 C 0 232.84375 67.15625 300 150 300 C 232.84375 300 300 232.84375 300 150 C 300 67.15625 232.84375 0 150 0 Z M 150 0 "/>
</clipPath>
<clipPath id="clip12">
  <path d="M 182 152 L 187 152 L 187 157 L 182 157 Z M 182 152 "/>
</clipPath>
<clipPath id="clip13">
  <path d="M 150 0 C 67.15625 0 0 67.15625 0 150 C 0 232.84375 67.15625 300 150 300 C 232.84375 300 300 232.84375 300 150 C 300 67.15625 232.84375 0 150 0 Z M 150 0 "/>
</clipPath>
<clipPath id="clip14">
  <path d="M 148 154 L 152 154 L 152 185 L 148 185 Z M 148 154 "/>
</clipPath>
<clipPath id="clip15">
  <path d="M 150 0 C 67.15625 0 0 67.15625 0 150 C 0 232.84375 67.15625 300 150 300 C 232.84375 300 300 232.84375 300 150 C 300 67.15625 232.84375 0 150 0 Z M 150 0 "/>
</clipPath>
<clipPath id="clip16">
  <path d="M 180 161 L 185 161 L 185 166 L 180 166 Z M 180 161 "/>
</clipPath>
<clipPath id="clip17">
  <path d="M 150 0 C 67.15625 0 0 67.15625 0 150 C 0 232.84375 67.15625 300 150 300 C 232.84375 300 300 232.84375 300 150 C 300 67.15625 232.84375 0 150 0 Z M 150 0 "/>
</clipPath>
<clipPath id="clip18">
  <path d="M 140 153 L 149 153 L 149 184 L 140 184 Z M 140 153 "/>
</clipPath>
<clipPath id="clip19">
  <path d="M 150 0 C 67.15625 0 0 67.15625 0 150 C 0 232.84375 67.15625 300 150 300 C 232.84375 300 300 232.84375 300 150 C 300 67.15625 232.84375 0 150 0 Z M 150 0 "/>
</clipPath>
<clipPath id="clip20">
  <path d="M 176 169 L 180 169 L 180 174 L 176 174 Z M 176 169 "/>
</clipPath>
<clipPath id="clip21">
  <path d="M 150 0 C 67.15625 0 0 67.15625 0 150 C 0 232.84375 67.15625 300 150 300 C 232.84375 300 300 232.84375 300 150 C 300 67.15625 232.84375 0 150 0 Z M 150 0 "/>
</clipPath>
<clipPath id="clip22">
  <path d="M 132 153 L 148 153 L 148 181 L 132 181 Z M 132 153 "/>
</clipPath>
<clipPath id="clip23">
  <path d="M 150 0 C 67.15625 0 0 67.15625 0 150 C 0 232.84375 67.15625 300 150 300 C 232.84375 300 300 232.84375 300 150 C 300 67.15625 232.84375 0 150 0 Z M 150 0 "/>
</clipPath>
<clipPath id="clip24">
  <path d="M 169 176 L 174 176 L 174 180 L 169 180 Z M 169 176 "/>
</clipPath>
<clipPath id="clip25">
  <path d="M 150 0 C 67.15625 0 0 67.15625 0 150 C 0 232.84375 67.15625 300 150 300 C 232.84375 300 300 232.84375 300 150 C 300 67.15625 232.84375 0 150 0 Z M 150 0 "/>
</clipPath>
<clipPath id="clip26">
  <path d="M 125 152 L 148 152 L 148 175 L 125 175 Z M 125 152 "/>
</clipPath>
<clipPath id="clip27">
  <path d="M 150 0 C 67.15625 0 0 67.15625 0 150 C 0 232.84375 67.15625 300 150 300 C 232.84375 300 300 232.84375 300 150 C 300 67.15625 232.84375 0 150 0 Z M 150 0 "/>
</clipPath>
<clipPath id="clip28">
  <path d="M 161 180 L 166 180 L 166 185 L 161 185 Z M 161 180 "/>
</clipPath>
<clipPath id="clip29">
  <path d="M 150 0 C 67.15625 0 0 67.15625 0 150 C 0 232.84375 67.15625 300 150 300 C 232.84375 300 300 232.84375 300 150 C 300 67.15625 232.84375 0 150 0 Z M 150 0 "/>
</clipPath>
<clipPath id="clip30">
  <path d="M 119 152 L 147 152 L 147 168 L 119 168 Z M 119 152 "/>
</clipPath>
<clipPath id="clip31">
  <path d="M 150 0 C 67.15625 0 0 67.15625 0 150 C 0 232.84375 67.15625 300 150 300 C 232.84375 300 300 232.84375 300 150 C 300 67.15625 232.84375 0 150 0 Z M 150 0 "/>
</clipPath>
<clipPath id="clip32">
  <path d="M 152 182 L 157 182 L 157 187 L 152 187 Z M 152 182 "/>
</clipPath>
<clipPath id="clip33">
  <path d="M 150 0 C 67.15625 0 0 67.15625 0 150 C 0 232.84375 67.15625 300 150 300 C 232.84375 300 300 232.84375 300 150 C 300 67.15625 232.84375 0 150 0 Z M 150 0 "/>
</clipPath>
<clipPath id="clip34">
  <path d="M 116 151 L 147 151 L 147 160 L 116 160 Z M 116 151 "/>
</clipPath>
<clipPath id="clip35">
  <path d="M 150 0 C 67.15625 0 0 67.15625 0 150 C 0 232.84375 67.15625 300 150 300 C 232.84375 300 300 232.84375 300 150 C 300 67.15625 232.84375 0 150 0 Z M 150 0 "/>
</clipPath>
<clipPath id="clip36">
  <path d="M 143 182 L 148 182 L 148 187 L 143 187 Z M 143 182 "/>
</clipPath>
<clipPath id="clip37">
  <path d="M 150 0 C 67.15625 0 0 67.15625 0 150 C 0 232.84375 67.15625 300 150 300 C 232.84375 300 300 232.84375 300 150 C 300 67.15625 232.84375 0 150 0 Z M 150 0 "/>
</clipPath>
<clipPath id="clip38">
  <path d="M 115 148 L 146 148 L 146 152 L 115 152 Z M 115 148 "/>
</clipPath>
<clipPath id="clip39">
  <path d="M 150 0 C 67.15625 0 0 67.15625 0 150 C 0 232.84375 67.15625 300 150 300 C 232.84375 300 300 232.84375 300 150 C 300 67.15625 232.84375 0 150 0 Z M 150 0 "/>
</clipPath>
<clipPath id="clip40">
  <path d="M 134 180 L 139 180 L 139 185 L 134 185 Z M 134 180 "/>
</clipPath>
<clipPath id="clip41">
  <path d="M 150 0 C 67.15625 0 0 67.15625 0 150 C 0 232.84375 67.15625 300 150 300 C 232.84375 300 300 232.84375 300 150 C 300 67.15625 232.84375 0 150 0 Z M 150 0 "/>
</clipPath>
<clipPath id="clip42">
  <path d="M 116 140 L 147 140 L 147 149 L 116 149 Z M 116 140 "/>
</clipPath>
<clipPath id="clip43">
  <path d="M 150 0 C 67.15625 0 0 67.15625 0 150 C 0 232.84375 67.15625 300 150 300 C 232.84375 300 300 232.84375 300 150 C 300 67.15625 232.84375 0 150 0 Z M 150 0 "/>
</clipPath>
<clipPath id="clip44">
  <path d="M 126 176 L 131 176 L 131 180 L 126 180 Z M 126 176 "/>
</clipPath>
<clipPath id="clip45">
  <path d="M 150 0 C 67.15625 0 0 67.15625 0 150 C 0 232.84375 67.15625 300 150 300 C 232.84375 300 300 232.84375 300 150 C 300 67.15625 232.84375 0 150 0 Z M 150 0 "/>
</clipPath>
<clipPath id="clip46">
  <path d="M 119 132 L 147 132 L 147 148 L 119 148 Z M 119 132 "/>
</clipPath>
<clipPath id="clip47">
  <path d="M 150 0 C 67.15625 0 0 67.15625 0 150 C 0 232.84375 67.15625 300 150 300 C 232.84375 300 300 232.84375 300 150 C 300 67.15625 232.84375 0 150 0 Z M 150 0 "/>
</clipPath>
<clipPath id="clip48">
  <path d="M 120 169 L 124 169 L 124 174 L 120 174 Z M 120 169 "/>
</clipPath>
<clipPath id="clip49">
  <path d="M 150 0 C 67.15625 0 0 67.15625 0 150 C 0 232.84375 67.15625 300 150 300 C 232.84375 300 300 232.84375 300 150 C 300 67.15625 232.84375 0 150 0 Z M 150 0 "/>
</clipPath>
<clipPath id="clip50">
  <path d="M 125 125 L 148 125 L 148 148 L 125 148 Z M 125 125 "/>
</clipPath>
<clipPath id="clip51">
  <path d="M 150 0 C 67.15625 0 0 67.15625 0 150 C 0 232.84375 67.15625 300 150 300 C 232.84375 300 300 232.84375 300 150 C 300 67.15625 232.84375 0 150 0 Z M 150 0 "/>
</clipPath>
<clipPath id="clip52">
  <path d="M 115 161 L 120 161 L 120 166 L 115 166 Z M 115 161 "/>
</clipPath>
<clipPath id="clip53">
  <path d="M 150 0 C 67.15625 0 0 67.15625 0 150 C 0 232.84375 67.15625 300 150 300 C 232.84375 300 300 232.84375 300 150 C 300 67.15625 232.84375 0 150 0 Z M 150 0 "/>
</clipPath>
<clipPath id="clip54">
  <path d="M 132 119 L 148 119 L 148 147 L 132 147 Z M 132 119 "/>
</clipPath>
<clipPath id="clip55">
  <path d="M 150 0 C 67.15625 0 0 67.15625 0 150 C 0 232.84375 67.15625 300 150 300 C 232.84375 300 300 232.84375 300 150 C 300 67.15625 232.84375 0 150 0 Z M 150 0 "/>
</clipPath>
<clipPath id="clip56">
  <path d="M 113 152 L 118 152 L 118 157 L 113 157 Z M 113 152 "/>
</clipPath>
<clipPath id="clip57">
  <path d="M 150 0 C 67.15625 0 0 67.15625 0 150 C 0 232.84375 67.15625 300 150 300 C 232.84375 300 300 232.84375 300 150 C 300 67.15625 232.84375 0 150 0 Z M 150 0 "/>
</clipPath>
<clipPath id="clip58">
  <path d="M 140 116 L 149 116 L 149 147 L 140 147 Z M 140 116 "/>
</clipPath>
<clipPath id="clip59">
  <path d="M 150 0 C 67.15625 0 0 67.15625 0 150 C 0 232.84375 67.15625 300 150 300 C 232.84375 300 300 232.84375 300 150 C 300 67.15625 232.84375 0 150 0 Z M 150 0 "/>
</clipPath>
<clipPath id="clip60">
  <path d="M 113 143 L 118 143 L 118 148 L 113 148 Z M 113 143 "/>
</clipPath>
<clipPath id="clip61">
  <path d="M 150 0 C 67.15625 0 0 67.15625 0 150 C 0 232.84375 67.15625 300 150 300 C 232.84375 300 300 232.84375 300 150 C 300 67.15625 232.84375 0 150 0 Z M 150 0 "/>
</clipPath>
<clipPath id="clip62">
  <path d="M 148 115 L 152 115 L 152 146 L 148 146 Z M 148 115 "/>
</clipPath>
<clipPath id="clip63">
  <path d="M 150 0 C 67.15625 0 0 67.15625 0 150 C 0 232.84375 67.15625 300 150 300 C 232.84375 300 300 232.84375 300 150 C 300 67.15625 232.84375 0 150 0 Z M 150 0 "/>
</clipPath>
<clipPath id="clip64">
  <path d="M 115 134 L 120 134 L 120 139 L 115 139 Z M 115 134 "/>
</clipPath>
<clipPath id="clip65">
  <path d="M 150 0 C 67.15625 0 0 67.15625 0 150 C 0 232.84375 67.15625 300 150 300 C 232.84375 300 300 232.84375 300 150 C 300 67.15625 232.84375 0 150 0 Z M 150 0 "/>
</clipPath>
<clipPath id="clip66">
  <path d="M 151 116 L 160 116 L 160 147 L 151 147 Z M 151 116 "/>
</clipPath>
<clipPath id="clip67">
  <path d="M 150 0 C 67.15625 0 0 67.15625 0 150 C 0 232.84375 67.15625 300 150 300 C 232.84375 300 300 232.84375 300 150 C 300 67.15625 232.84375 0 150 0 Z M 150 0 "/>
</clipPath>
<clipPath id="clip68">
  <path d="M 120 126 L 124 126 L 124 131 L 120 131 Z M 120 126 "/>
</clipPath>
<clipPath id="clip69">
  <path d="M 150 0 C 67.15625 0 0 67.15625 0 150 C 0 232.84375 67.15625 300 150 300 C 232.84375 300 300 232.84375 300 150 C 300 67.15625 232.84375 0 150 0 Z M 150 0 "/>
</clipPath>
<clipPath id="clip70">
  <path d="M 152 119 L 168 119 L 168 147 L 152 147 Z M 152 119 "/>
</clipPath>
<clipPath id="clip71">
  <path d="M 150 0 C 67.15625 0 0 67.15625 0 150 C 0 232.84375 67.15625 300 150 300 C 232.84375 300 300 232.84375 300 150 C 300 67.15625 232.84375 0 150 0 Z M 150 0 "/>
</clipPath>
<clipPath id="clip72">
  <path d="M 126 120 L 131 120 L 131 124 L 126 124 Z M 126 120 "/>
</clipPath>
<clipPath id="clip73">
  <path d="M 150 0 C 67.15625 0 0 67.15625 0 150 C 0 232.84375 67.15625 300 150 300 C 232.84375 300 300 232.84375 300 150 C 300 67.15625 232.84375 0 150 0 Z M 150 0 "/>
</clipPath>
<clipPath id="clip74">
  <path d="M 152 125 L 175 125 L 175 148 L 152 148 Z M 152 125 "/>
</clipPath>
<clipPath id="clip75">
  <path d="M 150 0 C 67.15625 0 0 67.15625 0 150 C 0 232.84375 67.15625 300 150 300 C 232.84375 300 300 232.84375 300 150 C 300 67.15625 232.84375 0 150 0 Z M 150 0 "/>
</clipPath>
<clipPath id="clip76">
  <path d="M 134 115 L 139 115 L 139 120 L 134 120 Z M 134 115 "/>
</clipPath>
<clipPath id="clip77">
  <path d="M 150 0 C 67.15625 0 0 67.15625 0 150 C 0 232.84375 67.15625 300 150 300 C 232.84375 300 300 232.84375 300 150 C 300 67.15625 232.84375 0 150 0 Z M 150 0 "/>
</clipPath>
<clipPath id="clip78">
  <path d="M 153 132 L 181 132 L 181 148 L 153 148 Z M 153 132 "/>
</clipPath>
<clipPath id="clip79">
  <path d="M 150 0 C 67.15625 0 0 67.15625 0 150 C 0 232.84375 67.15625 300 150 300 C 232.84375 300 300 232.84375 300 150 C 300 67.15625 232.84375 0 150 0 Z M 150 0 "/>
</clipPath>
<clipPath id="clip80">
  <path d="M 143 113 L 148 113 L 148 118 L 143 118 Z M 143 113 "/>
</clipPath>
<clipPath id="clip81">
  <path d="M 150 0 C 67.15625 0 0 67.15625 0 150 C 0 232.84375 67.15625 300 150 300 C 232.84375 300 300 232.84375 300 150 C 300 67.15625 232.84375 0 150 0 Z M 150 0 "/>
</clipPath>
<clipPath id="clip82">
  <path d="M 153 140 L 184 140 L 184 149 L 153 149 Z M 153 140 "/>
</clipPath>
<clipPath id="clip83">
  <path d="M 150 0 C 67.15625 0 0 67.15625 0 150 C 0 232.84375 67.15625 300 150 300 C 232.84375 300 300 232.84375 300 150 C 300 67.15625 232.84375 0 150 0 Z M 150 0 "/>
</clipPath>
<clipPath id="clip84">
  <path d="M 152 113 L 157 113 L 157 118 L 152 118 Z M 152 113 "/>
</clipPath>
<clipPath id="clip85">
  <path d="M 150 0 C 67.15625 0 0 67.15625 0 150 C 0 232.84375 67.15625 300 150 300 C 232.84375 300 300 232.84375 300 150 C 300 67.15625 232.84375 0 150 0 Z M 150 0 "/>
</clipPath>
<clipPath id="clip86">
  <path d="M 154 148 L 185 148 L 185 152 L 154 152 Z M 154 148 "/>
</clipPath>
<clipPath id="clip87">
  <path d="M 150 0 C 67.15625 0 0 67.15625 0 150 C 0 232.84375 67.15625 300 150 300 C 232.84375 300 300 232.84375 300 150 C 300 67.15625 232.84375 0 150 0 Z M 150 0 "/>
</clipPath>
<clipPath id="clip88">
  <path d="M 161 115 L 166 115 L 166 120 L 161 120 Z M 161 115 "/>
</clipPath>
<clipPath id="clip89">
  <path d="M 150 0 C 67.15625 0 0 67.15625 0 150 C 0 232.84375 67.15625 300 150 300 C 232.84375 300 300 232.84375 300 150 C 300 67.15625 232.84375 0 150 0 Z M 150 0 "/>
</clipPath>
<clipPath id="clip90">
  <path d="M 153 151 L 184 151 L 184 160 L 153 160 Z M 153 151 "/>
</clipPath>
<clipPath id="clip91">
  <path d="M 150 0 C 67.15625 0 0 67.15625 0 150 C 0 232.84375 67.15625 300 150 300 C 232.84375 300 300 232.84375 300 150 C 300 67.15625 232.84375 0 150 0 Z M 150 0 "/>
</clipPath>
<clipPath id="clip92">
  <path d="M 169 120 L 174 120 L 174 124 L 169 124 Z M 169 120 "/>
</clipPath>
<clipPath id="clip93">
  <path d="M 150 0 C 67.15625 0 0 67.15625 0 150 C 0 232.84375 67.15625 300 150 300 C 232.84375 300 300 232.84375 300 150 C 300 67.15625 232.84375 0 150 0 Z M 150 0 "/>
</clipPath>
<clipPath id="clip94">
  <path d="M 153 152 L 181 152 L 181 168 L 153 168 Z M 153 152 "/>
</clipPath>
<clipPath id="clip95">
  <path d="M 150 0 C 67.15625 0 0 67.15625 0 150 C 0 232.84375 67.15625 300 150 300 C 232.84375 300 300 232.84375 300 150 C 300 67.15625 232.84375 0 150 0 Z M 150 0 "/>
</clipPath>
<clipPath id="clip96">
  <path d="M 176 126 L 180 126 L 180 131 L 176 131 Z M 176 126 "/>
</clipPath>
<clipPath id="clip97">
  <path d="M 150 0 C 67.15625 0 0 67.15625 0 150 C 0 232.84375 67.15625 300 150 300 C 232.84375 300 300 232.84375 300 150 C 300 67.15625 232.84375 0 150 0 Z M 150 0 "/>
</clipPath>
<clipPath id="clip98">
  <path d="M 152 152 L 175 152 L 175 175 L 152 175 Z M 152 152 "/>
</clipPath>
<clipPath id="clip99">
  <path d="M 150 0 C 67.15625 0 0 67.15625 0 150 C 0 232.84375 67.15625 300 150 300 C 232.84375 300 300 232.84375 300 150 C 300 67.15625 232.84375 0 150 0 Z M 150 0 "/>
</clipPath>
<clipPath id="clip100">
  <path d="M 180 134 L 185 134 L 185 139 L 180 139 Z M 180 134 "/>
</clipPath>
<clipPath id="clip101">
  <path d="M 150 0 C 67.15625 0 0 67.15625 0 150 C 0 232.84375 67.15625 300 150 300 C 232.84375 300 300 232.84375 300 150 C 300 67.15625 232.84375 0 150 0 Z M 150 0 "/>
</clipPath>
<clipPath id="clip102">
  <path d="M 152 153 L 168 153 L 168 181 L 152 181 Z M 152 153 "/>
</clipPath>
<clipPath id="clip103">
  <path d="M 150 0 C 67.15625 0 0 67.15625 0 150 C 0 232.84375 67.15625 300 150 300 C 232.84375 300 300 232.84375 300 150 C 300 67.15625 232.84375 0 150 0 Z M 150 0 "/>
</clipPath>
<clipPath id="clip104">
  <path d="M 182 143 L 187 143 L 187 148 L 182 148 Z M 182 143 "/>
</clipPath>
<clipPath id="clip105">
  <path d="M 150 0 C 67.15625 0 0 67.15625 0 150 C 0 232.84375 67.15625 300 150 300 C 232.84375 300 300 232.84375 300 150 C 300 67.15625 232.84375 0 150 0 Z M 150 0 "/>
</clipPath>
<clipPath id="clip106">
  <path d="M 151 153 L 160 153 L 160 184 L 151 184 Z M 151 153 "/>
</clipPath>
<clipPath id="clip107">
  <path d="M 150 0 C 67.15625 0 0 67.15625 0 150 C 0 232.84375 67.15625 300 150 300 C 232.84375 300 300 232.84375 300 150 C 300 67.15625 232.84375 0 150 0 Z M 150 0 "/>
</clipPath>
</defs>
<g id="surface1">
<g clip-path="url(#clip1)" clip-rule="nonzero">
<rect x="0" y="0" width="300" height="300" style="fill:rgb(100%,59.999084%,19.999695%);fill-opacity:1;stroke:none;"/>
</g>
<g clip-path="url(#clip2)" clip-rule="nonzero">
<g clip-path="url(#clip3)" clip-rule="nonzero">
<path style=" stroke:none;fill-rule:nonzero;fill:rgb(100%,100%,100%);fill-opacity:1;" d="M -75 100 L 375 100 L 375 200 L -75 200 Z M -75 100 "/>
</g>
</g>
<g clip-path="url(#clip4)" clip-rule="nonzero">
<g clip-path="url(#clip5)" clip-rule="nonzero">
<path style=" stroke:none;fill-rule:nonzero;fill:rgb(7.099915%,53.29895%,2.69928%);fill-opacity:1;" d="M -75 200 L 375 200 L 375 300 L -75 300 Z M -75 200 "/>
</g>
</g>
<g clip-path="url(#clip6)" clip-rule="nonzero">
<g clip-path="url(#clip7)" clip-rule="nonzero">
<path style=" stroke:none;fill-rule:nonzero;fill:rgb(0%,0%,53.29895%);fill-opacity:1;" d="M 150 110 C 172.089844 110 190 127.910156 190 150 C 190 172.089844 172.089844 190 150 190 C 127.910156 190 110 172.089844 110 150 C 110 127.910156 127.910156 110 150 110 "/>
</g>
</g>
<g clip-path="url(#clip8)" clip-rule="nonzero">
<g clip-path="url(#clip9)" clip-rule="nonzero">
<path style=" stroke:none;fill-rule:nonzero;fill:rgb(100%,100%,100%);fill-opacity:1;" d="M 150 115 C 169.328125 115 185 130.671875 185 150 C 185 169.328125 169.328125 185 150 185 C 130.671875 185 115 169.328125 115 150 C 115 130.671875 130.671875 115 150 115 "/>
</g>
</g>
<g clip-path="url(#clip10)" clip-rule="nonzero">
<g clip-path="url(#clip11)" clip-rule="nonzero">
<path style=" stroke:none;fill-rule:nonzero;fill:rgb(0%,0%,53.29895%);fill-opacity:1;" d="M 150 143 C 153.867188 143 157 146.132813 157 150 C 157 153.867188 153.867188 157 150 157 C 146.132813 157 143 153.867188 143 150 C 143 146.132813 146.132813 143 150 143 "/>
</g>
</g>
<g clip-path="url(#clip12)" clip-rule="nonzero">
<g clip-path="url(#clip13)" clip-rule="nonzero">
<path style=" stroke:none;fill-rule:nonzero;fill:rgb(0%,0%,53.29895%);fill-opacity:1;" d="M 184.929688 152.832031 C 185.886719 152.960938 186.5625 153.839844 186.4375 154.796875 C 186.308594 155.753906 185.429688 156.429688 184.472656 156.304688 C 183.515625 156.175781 182.839844 155.296875 182.964844 154.339844 C 183.089844 153.382813 183.96875 152.707031 184.929688 152.832031 "/>
</g>
</g>
<g clip-path="url(#clip14)" clip-rule="nonzero">
<g clip-path="url(#clip15)" clip-rule="nonzero">
<path style=" stroke:none;fill-rule:nonzero;fill:rgb(0%,0%,53.29895%);fill-opacity:1;" d="M 150 185 L 151.199219 164 L 150 154 L 148.800781 164 Z M 150 185 "/>
</g>
</g>
<g clip-path="url(#clip16)" clip-rule="nonzero">
<g clip-path="url(#clip17)" clip-rule="nonzero">
<path style=" stroke:none;fill-rule:nonzero;fill:rgb(0%,0%,53.29895%);fill-opacity:1;" d="M 183.003906 161.777344 C 183.898438 162.148438 184.320313 163.171875 183.953125 164.0625 C 183.582031 164.957031 182.558594 165.382813 181.667969 165.011719 C 180.773438 164.640625 180.347656 163.617188 180.71875 162.722656 C 181.089844 161.832031 182.113281 161.40625 183.003906 161.777344 "/>
</g>
</g>
<g clip-path="url(#clip18)" clip-rule="nonzero">
<g clip-path="url(#clip19)" clip-rule="nonzero">
<path style=" stroke:none;fill-rule:nonzero;fill:rgb(0%,0%,53.29895%);fill-opacity:1;" d="M 140.941406 183.808594 L 147.535156 163.832031 L 148.964844 153.863281 L 145.21875 163.210938 Z M 140.941406 183.808594 "/>
</g>
</g>
<g clip-path="url(#clip20)" clip-rule="nonzero">
<g clip-path="url(#clip21)" clip-rule="nonzero">
<path style=" stroke:none;fill-rule:nonzero;fill:rgb(0%,0%,53.29895%);fill-opacity:1;" d="M 178.832031 169.917969 C 179.601563 170.507813 179.742188 171.605469 179.15625 172.371094 C 178.566406 173.140625 177.46875 173.285156 176.703125 172.695313 C 175.9375 172.105469 175.789063 171.007813 176.378906 170.242188 C 176.964844 169.472656 178.066406 169.332031 178.832031 169.917969 "/>
</g>
</g>
<g clip-path="url(#clip22)" clip-rule="nonzero">
<g clip-path="url(#clip23)" clip-rule="nonzero">
<path style=" stroke:none;fill-rule:nonzero;fill:rgb(0%,0%,53.29895%);fill-opacity:1;" d="M 132.5 180.3125 L 144.039063 162.722656 L 148 153.464844 L 141.960938 161.523438 Z M 132.5 180.3125 "/>
</g>
</g>
<g clip-path="url(#clip24)" clip-rule="nonzero">
<g clip-path="url(#clip25)" clip-rule="nonzero">
<path style=" stroke:none;fill-rule:nonzero;fill:rgb(0%,0%,53.29895%);fill-opacity:1;" d="M 172.695313 176.703125 C 173.28125 177.46875 173.140625 178.566406 172.371094 179.15625 C 171.605469 179.742188 170.507813 179.597656 169.917969 178.832031 C 169.328125 178.066406 169.472656 176.96875 170.242188 176.378906 C 171.007813 175.792969 172.105469 175.933594 172.695313 176.703125 "/>
</g>
</g>
<g clip-path="url(#clip26)" clip-rule="nonzero">
<g clip-path="url(#clip27)" clip-rule="nonzero">
<path style=" stroke:none;fill-rule:nonzero;fill:rgb(0%,0%,53.29895%);fill-opacity:1;" d="M 125.25 174.75 L 140.949219 160.746094 L 147.171875 152.828125 L 139.253906 159.050781 Z M 125.25 174.75 "/>
</g>
</g>
<g clip-path="url(#clip28)" clip-rule="nonzero">
<g clip-path="url(#clip29)" clip-rule="nonzero">
<path style=" stroke:none;fill-rule:nonzero;fill:rgb(0%,0%,53.29895%);fill-opacity:1;" d="M 165.011719 181.667969 C 165.378906 182.558594 164.957031 183.582031 164.0625 183.953125 C 163.171875 184.324219 162.144531 183.898438 161.777344 183.003906 C 161.40625 182.113281 161.832031 181.089844 162.722656 180.71875 C 163.617188 180.347656 164.640625 180.773438 165.011719 181.667969 "/>
</g>
</g>
<g clip-path="url(#clip30)" clip-rule="nonzero">
<g clip-path="url(#clip31)" clip-rule="nonzero">
<path style=" stroke:none;fill-rule:nonzero;fill:rgb(0%,0%,53.29895%);fill-opacity:1;" d="M 119.6875 167.5 L 138.476563 158.039063 L 146.535156 152 L 137.277344 155.960938 Z M 119.6875 167.5 "/>
</g>
</g>
<g clip-path="url(#clip32)" clip-rule="nonzero">
<g clip-path="url(#clip33)" clip-rule="nonzero">
<path style=" stroke:none;fill-rule:nonzero;fill:rgb(0%,0%,53.29895%);fill-opacity:1;" d="M 156.304688 184.472656 C 156.429688 185.429688 155.753906 186.308594 154.796875 186.4375 C 153.839844 186.5625 152.960938 185.886719 152.832031 184.929688 C 152.707031 183.972656 153.382813 183.089844 154.339844 182.964844 C 155.296875 182.839844 156.175781 183.515625 156.304688 184.472656 "/>
</g>
</g>
<g clip-path="url(#clip34)" clip-rule="nonzero">
<g clip-path="url(#clip35)" clip-rule="nonzero">
<path style=" stroke:none;fill-rule:nonzero;fill:rgb(0%,0%,53.29895%);fill-opacity:1;" d="M 116.191406 159.058594 L 136.789063 154.78125 L 146.136719 151.035156 L 136.167969 152.464844 Z M 116.191406 159.058594 "/>
</g>
</g>
<g clip-path="url(#clip36)" clip-rule="nonzero">
<g clip-path="url(#clip37)" clip-rule="nonzero">
<path style=" stroke:none;fill-rule:nonzero;fill:rgb(0%,0%,53.29895%);fill-opacity:1;" d="M 147.167969 184.929688 C 147.039063 185.886719 146.160156 186.5625 145.203125 186.4375 C 144.246094 186.308594 143.570313 185.429688 143.695313 184.472656 C 143.824219 183.515625 144.703125 182.839844 145.660156 182.964844 C 146.617188 183.09375 147.292969 183.972656 147.167969 184.929688 "/>
</g>
</g>
<g clip-path="url(#clip38)" clip-rule="nonzero">
<g clip-path="url(#clip39)" clip-rule="nonzero">
<path style=" stroke:none;fill-rule:nonzero;fill:rgb(0%,0%,53.29895%);fill-opacity:1;" d="M 115 150 L 136 151.199219 L 146 150 L 136 148.800781 Z M 115 150 "/>
</g>
</g>
<g clip-path="url(#clip40)" clip-rule="nonzero">
<g clip-path="url(#clip41)" clip-rule="nonzero">
<path style=" stroke:none;fill-rule:nonzero;fill:rgb(0%,0%,53.29895%);fill-opacity:1;" d="M 138.222656 183.003906 C 137.851563 183.898438 136.828125 184.324219 135.9375 183.953125 C 135.042969 183.582031 134.617188 182.558594 134.988281 181.667969 C 135.359375 180.773438 136.382813 180.347656 137.277344 180.71875 C 138.167969 181.089844 138.59375 182.113281 138.222656 183.003906 "/>
</g>
</g>
<g clip-path="url(#clip42)" clip-rule="nonzero">
<g clip-path="url(#clip43)" clip-rule="nonzero">
<path style=" stroke:none;fill-rule:nonzero;fill:rgb(0%,0%,53.29895%);fill-opacity:1;" d="M 116.191406 140.941406 L 136.167969 147.535156 L 146.136719 148.964844 L 136.789063 145.21875 Z M 116.191406 140.941406 "/>
</g>
</g>
<g clip-path="url(#clip44)" clip-rule="nonzero">
<g clip-path="url(#clip45)" clip-rule="nonzero">
<path style=" stroke:none;fill-rule:nonzero;fill:rgb(0%,0%,53.29895%);fill-opacity:1;" d="M 130.082031 178.832031 C 129.492188 179.601563 128.394531 179.742188 127.628906 179.15625 C 126.859375 178.566406 126.714844 177.46875 127.304688 176.703125 C 127.894531 175.9375 128.992188 175.789063 129.757813 176.378906 C 130.527344 176.96875 130.667969 178.066406 130.082031 178.832031 "/>
</g>
</g>
<g clip-path="url(#clip46)" clip-rule="nonzero">
<g clip-path="url(#clip47)" clip-rule="nonzero">
<path style=" stroke:none;fill-rule:nonzero;fill:rgb(0%,0%,53.29895%);fill-opacity:1;" d="M 119.6875 132.5 L 137.277344 144.039063 L 146.535156 148 L 138.476563 141.960938 Z M 119.6875 132.5 "/>
</g>
</g>
<g clip-path="url(#clip48)" clip-rule="nonzero">
<g clip-path="url(#clip49)" clip-rule="nonzero">
<path style=" stroke:none;fill-rule:nonzero;fill:rgb(0%,0%,53.29895%);fill-opacity:1;" d="M 123.296875 172.695313 C 122.53125 173.285156 121.433594 173.140625 120.84375 172.371094 C 120.257813 171.605469 120.402344 170.507813 121.167969 169.917969 C 121.933594 169.332031 123.03125 169.472656 123.621094 170.242188 C 124.207031 171.007813 124.066406 172.105469 123.296875 172.695313 "/>
</g>
</g>
<g clip-path="url(#clip50)" clip-rule="nonzero">
<g clip-path="url(#clip51)" clip-rule="nonzero">
<path style=" stroke:none;fill-rule:nonzero;fill:rgb(0%,0%,53.29895%);fill-opacity:1;" d="M 125.25 125.25 L 139.253906 140.949219 L 147.171875 147.171875 L 140.949219 139.253906 Z M 125.25 125.25 "/>
</g>
</g>
<g clip-path="url(#clip52)" clip-rule="nonzero">
<g clip-path="url(#clip53)" clip-rule="nonzero">
<path style=" stroke:none;fill-rule:nonzero;fill:rgb(0%,0%,53.29895%);fill-opacity:1;" d="M 118.332031 165.011719 C 117.441406 165.378906 116.417969 164.957031 116.046875 164.0625 C 115.675781 163.171875 116.101563 162.148438 116.996094 161.777344 C 117.886719 161.40625 118.910156 161.832031 119.28125 162.726563 C 119.652344 163.617188 119.226563 164.640625 118.332031 165.011719 "/>
</g>
</g>
<g clip-path="url(#clip54)" clip-rule="nonzero">
<g clip-path="url(#clip55)" clip-rule="nonzero">
<path style=" stroke:none;fill-rule:nonzero;fill:rgb(0%,0%,53.29895%);fill-opacity:1;" d="M 132.5 119.6875 L 141.960938 138.476563 L 148 146.535156 L 144.039063 137.277344 Z M 132.5 119.6875 "/>
</g>
</g>
<g clip-path="url(#clip56)" clip-rule="nonzero">
<g clip-path="url(#clip57)" clip-rule="nonzero">
<path style=" stroke:none;fill-rule:nonzero;fill:rgb(0%,0%,53.29895%);fill-opacity:1;" d="M 115.527344 156.304688 C 114.570313 156.429688 113.691406 155.753906 113.5625 154.796875 C 113.4375 153.839844 114.113281 152.960938 115.070313 152.832031 C 116.027344 152.707031 116.910156 153.382813 117.035156 154.339844 C 117.160156 155.296875 116.484375 156.175781 115.527344 156.304688 "/>
</g>
</g>
<g clip-path="url(#clip58)" clip-rule="nonzero">
<g clip-path="url(#clip59)" clip-rule="nonzero">
<path style=" stroke:none;fill-rule:nonzero;fill:rgb(0%,0%,53.29895%);fill-opacity:1;" d="M 140.941406 116.191406 L 145.21875 136.789063 L 148.964844 146.136719 L 147.535156 136.167969 Z M 140.941406 116.191406 "/>
</g>
</g>
<g clip-path="url(#clip60)" clip-rule="nonzero">
<g clip-path="url(#clip61)" clip-rule="nonzero">
<path style=" stroke:none;fill-rule:nonzero;fill:rgb(0%,0%,53.29895%);fill-opacity:1;" d="M 115.070313 147.167969 C 114.113281 147.039063 113.4375 146.160156 113.5625 145.203125 C 113.691406 144.246094 114.570313 143.570313 115.527344 143.695313 C 116.484375 143.824219 117.160156 144.703125 117.035156 145.660156 C 116.90625 146.617188 116.027344 147.292969 115.070313 147.167969 "/>
</g>
</g>
<g clip-path="url(#clip62)" clip-rule="nonzero">
<g clip-path="url(#clip63)" clip-rule="nonzero">
<path style=" stroke:none;fill-rule:nonzero;fill:rgb(0%,0%,53.29895%);fill-opacity:1;" d="M 150 115 L 148.800781 136 L 150 146 L 151.199219 136 Z M 150 115 "/>
</g>
</g>
<g clip-path="url(#clip64)" clip-rule="nonzero">
<g clip-path="url(#clip65)" clip-rule="nonzero">
<path style=" stroke:none;fill-rule:nonzero;fill:rgb(0%,0%,53.29895%);fill-opacity:1;" d="M 116.996094 138.222656 C 116.101563 137.851563 115.675781 136.828125 116.046875 135.9375 C 116.417969 135.042969 117.441406 134.617188 118.332031 134.988281 C 119.226563 135.359375 119.652344 136.382813 119.28125 137.277344 C 118.910156 138.167969 117.886719 138.59375 116.996094 138.222656 "/>
</g>
</g>
<g clip-path="url(#clip66)" clip-rule="nonzero">
<g clip-path="url(#clip67)" clip-rule="nonzero">
<path style=" stroke:none;fill-rule:nonzero;fill:rgb(0%,0%,53.29895%);fill-opacity:1;" d="M 159.058594 116.191406 L 152.464844 136.167969 L 151.035156 146.136719 L 154.78125 136.789063 Z M 159.058594 116.191406 "/>
</g>
</g>
<g clip-path="url(#clip68)" clip-rule="nonzero">
<g clip-path="url(#clip69)" clip-rule="nonzero">
<path style=" stroke:none;fill-rule:nonzero;fill:rgb(0%,0%,53.29895%);fill-opacity:1;" d="M 121.167969 130.082031 C 120.398438 129.492188 120.257813 128.394531 120.84375 127.628906 C 121.433594 126.863281 122.53125 126.714844 123.296875 127.304688 C 124.0625 127.894531 124.210938 128.992188 123.621094 129.757813 C 123.03125 130.527344 121.933594 130.671875 121.167969 130.082031 "/>
</g>
</g>
<g clip-path="url(#clip70)" clip-rule="nonzero">
<g clip-path="url(#clip71)" clip-rule="nonzero">
<path style=" stroke:none;fill-rule:nonzero;fill:rgb(0%,0%,53.29895%);fill-opacity:1;" d="M 167.5 119.6875 L 155.960938 137.277344 L 152 146.535156 L 158.039063 138.476563 Z M 167.5 119.6875 "/>
</g>
</g>
<g clip-path="url(#clip72)" clip-rule="nonzero">
<g clip-path="url(#clip73)" clip-rule="nonzero">
<path style=" stroke:none;fill-rule:nonzero;fill:rgb(0%,0%,53.29895%);fill-opacity:1;" d="M 127.304688 123.296875 C 126.714844 122.53125 126.859375 121.433594 127.628906 120.84375 C 128.394531 120.257813 129.492188 120.402344 130.082031 121.167969 C 130.667969 121.933594 130.527344 123.03125 129.757813 123.621094 C 128.992188 124.210938 127.894531 124.066406 127.304688 123.296875 "/>
</g>
</g>
<g clip-path="url(#clip74)" clip-rule="nonzero">
<g clip-path="url(#clip75)" clip-rule="nonzero">
<path style=" stroke:none;fill-rule:nonzero;fill:rgb(0%,0%,53.29895%);fill-opacity:1;" d="M 174.75 125.25 L 159.050781 139.253906 L 152.828125 147.171875 L 160.746094 140.949219 Z M 174.75 125.25 "/>
</g>
</g>
<g clip-path="url(#clip76)" clip-rule="nonzero">
<g clip-path="url(#clip77)" clip-rule="nonzero">
<path style=" stroke:none;fill-rule:nonzero;fill:rgb(0%,0%,53.29895%);fill-opacity:1;" d="M 134.988281 118.335938 C 134.621094 117.441406 135.042969 116.417969 135.9375 116.046875 C 136.828125 115.679688 137.851563 116.101563 138.222656 116.992188 C 138.59375 117.886719 138.167969 118.910156 137.273438 119.28125 C 136.382813 119.652344 135.359375 119.226563 134.988281 118.335938 "/>
</g>
</g>
<g clip-path="url(#clip78)" clip-rule="nonzero">
<g clip-path="url(#clip79)" clip-rule="nonzero">
<path style=" stroke:none;fill-rule:nonzero;fill:rgb(0%,0%,53.29895%);fill-opacity:1;" d="M 180.3125 132.5 L 161.523438 141.960938 L 153.464844 148 L 162.722656 144.039063 Z M 180.3125 132.5 "/>
</g>
</g>
<g clip-path="url(#clip80)" clip-rule="nonzero">
<g clip-path="url(#clip81)" clip-rule="nonzero">
<path style=" stroke:none;fill-rule:nonzero;fill:rgb(0%,0%,53.29895%);fill-opacity:1;" d="M 143.695313 115.527344 C 143.570313 114.570313 144.246094 113.691406 145.203125 113.5625 C 146.160156 113.4375 147.039063 114.113281 147.167969 115.070313 C 147.292969 116.027344 146.617188 116.910156 145.660156 117.035156 C 144.703125 117.160156 143.824219 116.484375 143.695313 115.527344 "/>
</g>
</g>
<g clip-path="url(#clip82)" clip-rule="nonzero">
<g clip-path="url(#clip83)" clip-rule="nonzero">
<path style=" stroke:none;fill-rule:nonzero;fill:rgb(0%,0%,53.29895%);fill-opacity:1;" d="M 183.808594 140.941406 L 163.210938 145.21875 L 153.863281 148.964844 L 163.832031 147.535156 Z M 183.808594 140.941406 "/>
</g>
</g>
<g clip-path="url(#clip84)" clip-rule="nonzero">
<g clip-path="url(#clip85)" clip-rule="nonzero">
<path style=" stroke:none;fill-rule:nonzero;fill:rgb(0%,0%,53.29895%);fill-opacity:1;" d="M 152.832031 115.070313 C 152.960938 114.113281 153.839844 113.4375 154.796875 113.5625 C 155.753906 113.691406 156.429688 114.570313 156.304688 115.527344 C 156.175781 116.484375 155.296875 117.160156 154.339844 117.035156 C 153.382813 116.910156 152.707031 116.027344 152.832031 115.070313 "/>
</g>
</g>
<g clip-path="url(#clip86)" clip-rule="nonzero">
<g clip-path="url(#clip87)" clip-rule="nonzero">
<path style=" stroke:none;fill-rule:nonzero;fill:rgb(0%,0%,53.29895%);fill-opacity:1;" d="M 185 150 L 164 148.800781 L 154 150 L 164 151.199219 Z M 185 150 "/>
</g>
</g>
<g clip-path="url(#clip88)" clip-rule="nonzero">
<g clip-path="url(#clip89)" clip-rule="nonzero">
<path style=" stroke:none;fill-rule:nonzero;fill:rgb(0%,0%,53.29895%);fill-opacity:1;" d="M 161.777344 116.996094 C 162.148438 116.101563 163.171875 115.675781 164.0625 116.046875 C 164.957031 116.417969 165.382813 117.441406 165.011719 118.335938 C 164.640625 119.226563 163.617188 119.652344 162.722656 119.28125 C 161.832031 118.910156 161.40625 117.886719 161.777344 116.996094 "/>
</g>
</g>
<g clip-path="url(#clip90)" clip-rule="nonzero">
<g clip-path="url(#clip91)" clip-rule="nonzero">
<path style=" stroke:none;fill-rule:nonzero;fill:rgb(0%,0%,53.29895%);fill-opacity:1;" d="M 183.808594 159.058594 L 163.832031 152.464844 L 153.863281 151.035156 L 163.210938 154.78125 Z M 183.808594 159.058594 "/>
</g>
</g>
<g clip-path="url(#clip92)" clip-rule="nonzero">
<g clip-path="url(#clip93)" clip-rule="nonzero">
<path style=" stroke:none;fill-rule:nonzero;fill:rgb(0%,0%,53.29895%);fill-opacity:1;" d="M 169.917969 121.167969 C 170.507813 120.398438 171.605469 120.257813 172.371094 120.84375 C 173.140625 121.433594 173.28125 122.53125 172.695313 123.296875 C 172.105469 124.0625 171.007813 124.210938 170.242188 123.621094 C 169.472656 123.035156 169.328125 121.933594 169.917969 121.167969 "/>
</g>
</g>
<g clip-path="url(#clip94)" clip-rule="nonzero">
<g clip-path="url(#clip95)" clip-rule="nonzero">
<path style=" stroke:none;fill-rule:nonzero;fill:rgb(0%,0%,53.29895%);fill-opacity:1;" d="M 180.3125 167.5 L 162.722656 155.960938 L 153.464844 152 L 161.523438 158.039063 Z M 180.3125 167.5 "/>
</g>
</g>
<g clip-path="url(#clip96)" clip-rule="nonzero">
<g clip-path="url(#clip97)" clip-rule="nonzero">
<path style=" stroke:none;fill-rule:nonzero;fill:rgb(0%,0%,53.29895%);fill-opacity:1;" d="M 176.703125 127.304688 C 177.46875 126.71875 178.566406 126.859375 179.15625 127.628906 C 179.742188 128.394531 179.597656 129.492188 178.832031 130.082031 C 178.066406 130.671875 176.96875 130.523438 176.378906 129.757813 C 175.789063 128.992188 175.933594 127.894531 176.703125 127.304688 "/>
</g>
</g>
<g clip-path="url(#clip98)" clip-rule="nonzero">
<g clip-path="url(#clip99)" clip-rule="nonzero">
<path style=" stroke:none;fill-rule:nonzero;fill:rgb(0%,0%,53.29895%);fill-opacity:1;" d="M 174.75 174.75 L 160.746094 159.050781 L 152.828125 152.828125 L 159.050781 160.746094 Z M 174.75 174.75 "/>
</g>
</g>
<g clip-path="url(#clip100)" clip-rule="nonzero">
<g clip-path="url(#clip101)" clip-rule="nonzero">
<path style=" stroke:none;fill-rule:nonzero;fill:rgb(0%,0%,53.29895%);fill-opacity:1;" d="M 181.664063 134.988281 C 182.558594 134.621094 183.582031 135.042969 183.953125 135.9375 C 184.320313 136.828125 183.898438 137.851563 183.003906 138.222656 C 182.113281 138.59375 181.089844 138.167969 180.71875 137.273438 C 180.347656 136.382813 180.773438 135.359375 181.664063 134.988281 "/>
</g>
</g>
<g clip-path="url(#clip102)" clip-rule="nonzero">
<g clip-path="url(#clip103)" clip-rule="nonzero">
<path style=" stroke:none;fill-rule:nonzero;fill:rgb(0%,0%,53.29895%);fill-opacity:1;" d="M 167.5 180.3125 L 158.039063 161.523438 L 152 153.464844 L 155.960938 162.722656 Z M 167.5 180.3125 "/>
</g>
</g>
<g clip-path="url(#clip104)" clip-rule="nonzero">
<g clip-path="url(#clip105)" clip-rule="nonzero">
<path style=" stroke:none;fill-rule:nonzero;fill:rgb(0%,0%,53.29895%);fill-opacity:1;" d="M 184.472656 143.695313 C 185.429688 143.570313 186.308594 144.246094 186.4375 145.203125 C 186.5625 146.160156 185.886719 147.039063 184.929688 147.167969 C 183.972656 147.292969 183.089844 146.617188 182.964844 145.660156 C 182.839844 144.703125 183.515625 143.824219 184.472656 143.695313 "/>
</g>
</g>
<g clip-path="url(#clip106)" clip-rule="nonzero">
<g clip-path="url(#clip107)" clip-rule="nonzero">
<path style=" stroke:none;fill-rule:nonzero;fill:rgb(0%,0%,53.29895%);fill-opacity:1;" d="M 159.058594 183.808594 L 154.78125 163.210938 L 151.035156 153.863281 L 152.464844 163.832031 Z M 159.058594 183.808594 "/>
</g>
</g>
</g>
</svg>
