<?xml version="1.0" encoding="utf-8"?>
<!-- Generator: Adobe Illustrator 18.0.0, SVG Export Plug-In . SVG Version: 6.00 Build 0)  -->
<!DOCTYPE svg PUBLIC "-//W3C//DTD SVG 1.1//EN" "http://www.w3.org/Graphics/SVG/1.1/DTD/svg11.dtd">
<svg version="1.1" id="Layer_1" xmlns="http://www.w3.org/2000/svg" xmlns:xlink="http://www.w3.org/1999/xlink" x="0px" y="0px"
	 viewBox="445.1 3.7 30 29.7" enable-background="new 445.1 3.7 30 29.7" xml:space="preserve">
<g>
	<path opacity="0.2" enable-background="new    " d="M475.1,19.5c0,1.1-0.3,2-0.5,3.1c-0.3,1.1-0.7,2.2-1.4,3.1
		c-0.5,1-1.1,1.8-1.8,2.6c-2.3,2.4-5.4,4.3-8.8,4.9c-2,0.3-4.1,0.3-6.1-0.1c-2.3-0.5-4.3-1.5-6.2-2.9c-0.5,0.4-1.1,0.7-1.8,1.1
		c-0.1,0.1-0.4,0.3-0.5,0.4c-0.1-3.8-0.1-7.3-0.3-10.9c0-0.3,0-0.4,0-0.7c3.1,1.8,6.2,3.4,9.2,5.2c0.3,0.1,0.4,0.3,0.7,0.4
		c-0.7,0.4-1.4,0.8-2.2,1.2c0.5,0.4,1.1,0.7,1.6,1.1c0.7,0.4,1.5,0.7,2.2,1c0.4,0.1,1,0.3,1.4,0.3c0.1,0,0.4,0.1,0.5,0.1H461
		c1.2,0,2.3,0,3.4-0.1c1.6-0.3,3.1-1,4.5-1.8c1.8-1.1,3.3-2.7,4.3-4.5c1-1.6,1.5-3.5,1.8-5.4l0,0C475.1,18.1,475.1,18.8,475.1,19.5z
		 M451.9,11.3c1.2-0.7,2.6-1.4,4.1-1.5c1.2-0.1,2.3-0.1,3.5-0.1h-0.1c0.1,0,0.3,0,0.4,0c0.4,0,0.8,0.1,1.2,0.3
		c0.8,0.3,1.6,0.5,2.4,1c0.7,0.3,1.2,0.7,1.8,1.1c-0.7,0.4-1.4,0.8-2.2,1.2c0.3,0.1,0.4,0.3,0.7,0.4c3.1,1.6,6.2,3.4,9.2,5
		c0-0.3,0-0.4,0-0.7c-0.1-3.5-0.1-7.1-0.3-10.6c-0.3,0.1-0.4,0.3-0.7,0.3c-0.5,0.4-1.1,0.7-1.8,1.1c-2-1.4-4.1-2.4-6.5-3
		c-2.2-0.4-4.3-0.4-6.4,0c-1.9,0.5-3.7,1.2-5.3,2.3c-1.1,0.7-2.2,1.6-3,2.7c-1.5,1.5-2.4,3.5-3,5.6c-0.3,1.1-0.4,2-0.5,3.1
		c0,0.7,0,1.4,0,2c0-0.1,0-0.1,0-0.3c0.3-2,0.8-3.8,1.9-5.6C448.5,13.8,450,12.3,451.9,11.3z"/>
	<path fill="#F66BC6" d="M474.7,17.6c0,1.1-0.3,2-0.5,3.1c-0.3,1.1-0.7,2.2-1.4,3.1c-0.5,1-1.1,1.8-1.8,2.6
		c-2.3,2.4-5.4,4.3-8.8,4.9c-2,0.3-4.1,0.3-6.1-0.1c-2.3-0.5-4.3-1.5-6.2-2.9c-0.5,0.4-1.1,0.7-1.8,1.1c-0.1,0.1-0.4,0.3-0.5,0.4
		c-0.1-3.5-0.1-7.1-0.3-10.6c0-0.3,0-0.4,0-0.7c3.1,1.8,6.2,3.4,9.2,5.2c0.3,0.1,0.4,0.3,0.7,0.4c-0.7,0.4-1.4,0.8-2.2,1.2
		c0.5,0.4,1.1,0.8,1.6,1.1c0.7,0.4,1.5,0.7,2.2,1c0.4,0.1,1,0.3,1.4,0.3c0.1,0,0.4,0.1,0.5,0.1h-0.1c1.2,0,2.3,0,3.4-0.1
		c1.6-0.3,3.1-1,4.5-1.8c1.8-1.1,3.3-2.7,4.3-4.5c1-1.6,1.5-3.5,1.8-5.4l0,0C474.7,16.2,474.7,16.9,474.7,17.6z M451.4,9.3
		c1.2-0.7,2.6-1.4,4.1-1.5c1.2-0.1,2.3-0.1,3.5-0.1h-0.1c0.1,0,0.3,0,0.4,0c0.4,0,0.8,0.1,1.2,0.3c0.8,0.3,1.6,0.5,2.4,1
		c0.7,0.3,1.2,0.7,1.8,1.1c-0.7,0.4-1.4,0.8-2.2,1.2c0.3,0.1,0.4,0.3,0.7,0.4c3.1,1.6,6.2,3.4,9.2,5c0-0.3,0-0.4,0-0.7
		c-0.1-3.4-0.1-6.9-0.3-10.5c-0.1,0.1-0.4,0.3-0.5,0.4c-0.5,0.4-1.1,0.7-1.8,1.1c-2-1.4-4.1-2.4-6.5-3c-2.2-0.4-4.3-0.4-6.4,0
		s-3.8,1.1-5.4,2.2c-1.1,0.7-2,1.6-3,2.6c-1.4,1.6-2.4,3.7-3,5.6c-0.3,1.1-0.4,2-0.5,3.1c0,0.7,0,1.4,0,2c0-0.1,0-0.1,0-0.3
		c0.3-2,0.8-3.8,1.9-5.6S449.7,10.4,451.4,9.3z"/>
</g>
</svg>
