<svg xmlns="http://www.w3.org/2000/svg" viewBox="0 0 334 63" width="334" height="63">
	<defs>
		<radialGradient id="grd1" gradientUnits="userSpaceOnUse"  cx="110.68" cy="36.371" r="22.016">
			<stop offset="0" stop-color="#ff0000"  />
			<stop offset="0.849" stop-color="#ff0500" stop-opacity="0" />
		</radialGradient>
		<radialGradient id="grd2" gradientUnits="userSpaceOnUse"  cx="45.907" cy="36.371" r="45.888">
			<stop offset="0" stop-color="#ff0000"  />
			<stop offset="0.849" stop-color="#ff0500" stop-opacity="0" />
		</radialGradient>
		<radialGradient id="grd3" gradientUnits="userSpaceOnUse"  cx="41.902" cy="35.894" r="41.268">
			<stop offset="0" stop-color="#ff0000"  />
			<stop offset="0.849" stop-color="#ff0500" stop-opacity="0" />
		</radialGradient>
		<radialGradient id="grd4" gradientUnits="userSpaceOnUse"  cx="97.102" cy="36.135" r="31.059">
			<stop offset="0" stop-color="#c40006"  />
			<stop offset="0.989" stop-color="#ff0500" stop-opacity="0" />
		</radialGradient>
	</defs>
	<style>
		tspan { white-space:pre }
		.shp0 { opacity: 0.58;fill: #ffffff } 
		.shp1 { fill: #29abe2 } 
		.shp2 { fill: url(#grd1) } 
		.shp3 { fill: url(#grd2) } 
		.shp4 { fill: url(#grd3) } 
		.shp5 { fill: url(#grd4) } 
		.shp6 { fill: #ff6cc5 } 
	</style>
	<g id="Layer">
		<g id="Layer">
			<g id="Layer">
				<g id="Layer">
					<g id="Layer">
						<path id="Layer" fill-rule="evenodd" class="shp0" d="M232.9 18.8L235.2 18.8L237.7 21.3L235.2 23.8L232.9 23.8L235.4 21.3L232.9 18.8ZM228 18.8L230.3 18.8L232.8 21.3L230.3 23.8L228 23.8L230.5 21.3L228 18.8ZM223.1 18.8L225.4 18.8L227.9 21.3L225.4 23.8L223.1 23.8L225.6 21.3L223.1 18.8ZM218.2 18.8L220.5 18.8L223 21.3L220.5 23.8L218.2 23.8L220.7 21.3L218.2 18.8ZM213.3 18.8L215.6 18.8L218.1 21.3L215.6 23.8L213.3 23.8L215.8 21.3L213.3 18.8ZM208.4 18.8L210.7 18.8L213.2 21.3L210.7 23.8L208.4 23.8L210.9 21.3L208.4 18.8ZM203.5 18.8L205.8 18.8L208.3 21.3L205.8 23.8L203.5 23.8L206 21.3L203.5 18.8ZM198.6 18.8L200.9 18.8L203.4 21.3L200.9 23.8L198.6 23.8L201.1 21.3L198.6 18.8ZM193.7 18.8L196 18.8L198.5 21.3L196 23.8L193.7 23.8L196.2 21.3L193.7 18.8ZM188.8 18.8L191.1 18.8L193.6 21.3L191.1 23.8L188.8 23.8L191.3 21.3L188.8 18.8Z" />
						<path id="Layer" class="shp1" d="M326.7 39.1L319.7 46.1L326.1 46.1L333.1 39.1L326.1 32.1L319.7 32.1L326.7 39.1ZM313 39.1L306 46.1L312.4 46.1L319.4 39.1L312.4 32.1L306 32.1L313 39.1ZM299.2 39.1L292.2 46.1L298.6 46.1L305.6 39.1L298.6 32.1L292.2 32.1L299.2 39.1ZM285.4 39.1L278.4 46.1L284.8 46.1L291.8 39.1L284.8 32.1L278.4 32.1L285.4 39.1ZM271.7 39.1L264.7 46.1L271.1 46.1L278.1 39.1L271.1 32.1L264.7 32.1L271.7 39.1ZM257.9 39.1L250.9 46.1L257.3 46.1L264.3 39.1L257.3 32.1L250.9 32.1L257.9 39.1ZM244.1 39.1L237.1 46.1L243.5 46.1L250.5 39.1L243.5 32.1L237.1 32.1L244.1 39.1ZM230.4 39.1L223.4 46.1L229.8 46.1L236.8 39.1L229.8 32.1L223.4 32.1L230.4 39.1ZM216.6 39.1L209.6 46.1L216 46.1L223 39.1L216 32.1L209.6 32.1L216.6 39.1Z" />
					</g>
				</g>
				<g id="Layer">
					<g id="Layer">
						<g id="Layer">
							<g id="Layer">
							</g>
						</g>
					</g>
				</g>
			</g>
			<g id="Layer">
				<path id="Layer" class="shp2" d="M110.5 38.9C98.33 38.9 88.5 37.78 88.5 36.4C88.5 35.02 98.33 33.9 110.5 33.9C122.67 33.9 132.5 35.02 132.5 36.4C132.5 37.78 122.67 38.9 110.5 38.9Z" />
				<path id="Layer" class="shp3" d="M45.9 38.9C20.52 38.9 0 37.78 0 36.4C0 35.02 20.52 33.9 45.9 33.9C71.28 33.9 91.8 35.02 91.8 36.4C91.8 37.78 71.28 38.9 45.9 38.9Z" />
				<path id="Layer" class="shp4" d="M42 37.5C19.22 37.5 0.8 36.78 0.8 35.9C0.8 35.02 19.22 34.3 42 34.3C64.78 34.3 83.2 35.02 83.2 35.9C83.2 36.78 64.78 37.5 42 37.5Z" />
				<path id="Layer" class="shp5" d="M97.2 38.2C80 38.2 66.1 37.26 66.1 36.1C66.1 34.94 80 34 97.2 34C114.4 34 128.3 34.94 128.3 36.1C128.3 37.26 114.4 38.2 97.2 38.2Z" />
			</g>
		</g>
		<g id="Layer">
			<g id="Layer">
				<g id="Layer">
					<path id="Layer" class="shp6" d="M167.3 45.7L161 39.9C160.7 39.6 160.5 39.3 160.5 38.9C160.5 38.7 160.6 38.5 160.7 38.3C160.8 38.1 160.9 37.9 161.1 37.8C161.3 37.7 161.5 37.5 161.7 37.5C161.9 37.4 162.2 37.4 162.5 37.4C163.1 37.4 163.6 37.6 164 37.9L169.9 43.4L175.8 37.9C176.2 37.6 176.7 37.4 177.3 37.4C177.6 37.4 177.9 37.4 178.1 37.5C178.3 37.6 178.6 37.7 178.7 37.8C178.8 37.9 179 38.1 179.1 38.3C179.2 38.5 179.3 38.7 179.3 38.9C179.3 39.3 179.1 39.6 178.8 39.9L172.5 45.7L178.9 51.6C179.2 51.9 179.3 52.2 179.3 52.6C179.3 52.8 179.2 53 179.1 53.2C179 53.4 178.8 53.6 178.7 53.7C178.5 53.8 178.3 54 178.1 54C177.9 54 177.6 54.1 177.3 54.1C176.7 54.1 176.3 53.9 175.8 53.6L169.9 48.1L163.9 53.6C163.5 53.9 163 54.1 162.5 54.1C162.2 54.1 161.9 54.1 161.7 54C161.5 53.9 161.2 53.8 161.1 53.7C160.9 53.6 160.8 53.4 160.7 53.2C160.6 53 160.5 52.8 160.5 52.6C160.5 52.2 160.6 51.9 160.9 51.6L167.3 45.7Z" />
				</g>
			</g>
		</g>
		<path id="forsagetron " fill="#ffffff" d="M24.44 10.77L27.65 10.77L27.65 13.52L25.33 13.52Q24.44 13.52 24.09 13.85Q23.74 14.16 23.74 14.96L23.74 15.88L27.32 15.88L27.32 18.88L23.74 18.88L23.74 29L19.54 29L19.54 18.88L17.46 18.88L17.46 15.88L19.54 15.88L19.54 14.96Q19.54 12.82 20.74 11.8Q21.93 10.77 24.44 10.77ZM35.7 18.56Q34.31 18.56 33.57 19.57Q32.84 20.56 32.84 22.45Q32.84 24.34 33.57 25.34Q34.31 26.34 35.7 26.34Q37.07 26.34 37.8 25.34Q38.53 24.34 38.53 22.45Q38.53 20.56 37.8 19.57Q37.07 18.56 35.7 18.56ZM35.7 15.56Q39.09 15.56 40.99 17.39Q42.9 19.21 42.9 22.45Q42.9 25.68 40.99 27.51Q39.09 29.34 35.7 29.34Q32.3 29.34 30.38 27.51Q28.47 25.68 28.47 22.45Q28.47 19.21 30.38 17.39Q32.3 15.56 35.7 15.56ZM55.68 15.65L55.7 19.45Q55.14 19.19 54.59 19.07Q54.05 18.95 53.5 18.95Q51.89 18.95 51.01 19.99Q50.14 21.02 50.14 22.95L50.14 29L45.95 29L45.95 15.88L50.14 15.88L50.14 18.03Q50.95 16.74 51.99 16.16Q53.05 15.56 54.51 15.56Q54.72 15.56 54.97 15.58Q55.21 15.59 55.68 15.65ZM68.04 16.29L68.04 19.47Q66.69 18.91 65.43 18.63Q64.18 18.35 63.07 18.35Q61.87 18.35 61.29 18.65Q60.71 18.95 60.71 19.57Q60.71 20.07 61.14 20.34Q61.59 20.61 62.73 20.74L63.46 20.84Q66.69 21.25 67.8 22.19Q68.91 23.13 68.91 25.13Q68.91 27.23 67.37 28.29Q65.82 29.34 62.75 29.34Q61.45 29.34 60.05 29.14Q58.67 28.93 57.21 28.52L57.21 25.33Q58.46 25.94 59.77 26.25Q61.1 26.55 62.46 26.55Q63.69 26.55 64.31 26.21Q64.93 25.87 64.93 25.2Q64.93 24.64 64.5 24.37Q64.07 24.09 62.8 23.94L62.06 23.84Q59.26 23.49 58.13 22.54Q57.01 21.59 57.01 19.66Q57.01 17.57 58.44 16.57Q59.87 15.56 62.82 15.56Q63.98 15.56 65.26 15.73Q66.54 15.91 68.04 16.29ZM80.13 23.09L77.95 23.09Q76.64 23.09 75.97 23.54Q75.31 23.98 75.31 24.85Q75.31 25.65 75.84 26.11Q76.38 26.55 77.33 26.55Q78.51 26.55 79.32 25.71Q80.13 24.85 80.13 23.57L80.13 23.09ZM84.36 21.51L84.36 29L80.13 29L80.13 27.05Q79.29 28.25 78.23 28.8Q77.18 29.34 75.66 29.34Q73.63 29.34 72.35 28.16Q71.08 26.96 71.08 25.06Q71.08 22.75 72.66 21.68Q74.26 20.6 77.66 20.6L80.13 20.6L80.13 20.27Q80.13 19.27 79.34 18.82Q78.56 18.35 76.89 18.35Q75.55 18.35 74.39 18.62Q73.23 18.89 72.23 19.43L72.23 16.23Q73.58 15.9 74.94 15.73Q76.3 15.56 77.66 15.56Q81.21 15.56 82.78 16.96Q84.36 18.36 84.36 21.51ZM97.19 27.68L97.19 26.77Q96.32 27.92 95.28 28.46Q94.24 29 92.87 29Q90.46 29 88.89 27.11Q87.32 25.21 87.32 22.29Q87.32 19.34 88.89 17.47Q90.46 15.58 92.87 15.58Q94.24 15.58 95.28 16.12Q96.32 16.66 97.19 17.82L97.19 15.88L101.41 15.88L101.41 27.68Q101.41 30.84 99.41 32.52Q97.41 34.18 93.62 34.18Q92.39 34.18 91.24 33.99Q90.09 33.8 88.93 33.42L88.93 30.15Q90.03 30.78 91.09 31.1Q92.14 31.4 93.21 31.4Q95.27 31.4 96.23 30.5Q97.19 29.6 97.19 27.68ZM94.43 18.61Q93.13 18.61 92.4 19.57Q91.67 20.53 91.67 22.29Q91.67 24.09 92.38 25.03Q93.08 25.95 94.43 25.95Q95.74 25.95 96.46 24.99Q97.19 24.03 97.19 22.29Q97.19 20.53 96.46 19.57Q95.74 18.61 94.43 18.61ZM118.54 22.4L118.54 23.6L108.73 23.6Q108.89 25.07 109.8 25.81Q110.71 26.55 112.36 26.55Q113.68 26.55 115.06 26.16Q116.46 25.77 117.92 24.97L117.92 28.2Q116.43 28.77 114.95 29.06Q113.46 29.34 111.97 29.34Q108.41 29.34 106.43 27.54Q104.46 25.72 104.46 22.45Q104.46 19.24 106.39 17.4Q108.34 15.56 111.73 15.56Q114.83 15.56 116.68 17.42Q118.54 19.29 118.54 22.4ZM108.78 21.01L114.23 21.01Q114.23 19.81 113.53 19.09Q112.84 18.35 111.71 18.35Q110.49 18.35 109.73 19.04Q108.97 19.72 108.78 21.01ZM122.11 12.15L126.3 12.15L126.3 15.88L130.63 15.88L130.63 18.88L126.3 18.88L126.3 24.44Q126.3 25.36 126.66 25.68Q127.03 26 128.11 26L130.26 26L130.26 29L126.66 29Q124.18 29 123.14 27.97Q122.11 26.93 122.11 24.44L122.11 18.88L120.02 18.88L120.02 15.88L122.11 15.88L122.11 12.15ZM142.93 15.65L142.94 19.45Q142.39 19.19 141.84 19.07Q141.3 18.95 140.75 18.95Q139.13 18.95 138.25 19.99Q137.39 21.02 137.39 22.95L137.39 29L133.19 29L133.19 15.88L137.39 15.88L137.39 18.03Q138.2 16.74 139.24 16.16Q140.29 15.56 141.76 15.56Q141.97 15.56 142.21 15.58Q142.46 15.59 142.93 15.65ZM151.27 18.56Q149.88 18.56 149.14 19.57Q148.41 20.56 148.41 22.45Q148.41 24.34 149.14 25.34Q149.88 26.34 151.27 26.34Q152.64 26.34 153.37 25.34Q154.1 24.34 154.1 22.45Q154.1 20.56 153.37 19.57Q152.64 18.56 151.27 18.56ZM151.27 15.56Q154.66 15.56 156.56 17.39Q158.47 19.21 158.47 22.45Q158.47 25.68 156.56 27.51Q154.66 29.34 151.27 29.34Q147.88 29.34 145.95 27.51Q144.04 25.68 144.04 22.45Q144.04 19.21 145.95 17.39Q147.88 15.56 151.27 15.56ZM174.71 21.01L174.71 29L170.49 29L170.49 27.7L170.49 22.88Q170.49 21.18 170.41 20.54Q170.34 19.89 170.15 19.59Q169.91 19.18 169.48 18.96Q169.06 18.72 168.52 18.72Q167.21 18.72 166.46 19.74Q165.71 20.75 165.71 22.54L165.71 29L161.52 29L161.52 15.88L165.71 15.88L165.71 17.8Q166.66 16.65 167.73 16.11Q168.79 15.56 170.08 15.56Q172.36 15.56 173.53 16.95Q174.71 18.35 174.71 21.01Z" />
		<path id="3 " fill="#ff6cc5" d="M191.09 45.88L191.09 33.42L183.13 45.88L191.09 45.88ZM180.56 45.45L190.27 30.67L194.23 30.67L194.23 45.88L197.56 45.88L197.56 48.5L194.23 48.5L194.23 54L191.09 54L191.09 48.5L180.56 48.5L180.56 45.45Z" />
	</g>
</svg>